<svg aria-hidden="true" style="position: absolute; width: 0; height: 0; overflow: hidden;" version="1.1" xmlns="http://www.w3.org/2000/svg" xmlns:xlink="http://www.w3.org/1999/xlink">
<defs>
<symbol id="icon-Logo_andText" viewBox="0 0 189 32">
<path d="M14.856 21.231c1.067 0 2.017-0.317 2.85-0.95s1.439-1.45 1.817-2.45h-9.333c0.378 1 0.983 1.817 1.817 2.45s1.783 0.95 2.85 0.95zM11.523 15.897c0.556 0 1.028-0.194 1.417-0.583s0.583-0.861 0.583-1.417c0-0.55-0.194-1.021-0.583-1.413s-0.861-0.587-1.417-0.587c-0.556 0-1.028 0.196-1.417 0.587s-0.583 0.862-0.583 1.413c0 0.556 0.194 1.028 0.583 1.417s0.861 0.583 1.417 0.583zM18.19 15.897c0.556 0 1.028-0.194 1.417-0.583s0.583-0.861 0.583-1.417c0-0.55-0.195-1.021-0.583-1.413s-0.861-0.587-1.417-0.587c-0.556 0-1.028 0.196-1.417 0.587s-0.583 0.862-0.583 1.413c0 0.556 0.194 1.028 0.583 1.417s0.861 0.583 1.417 0.583zM8.976 8.234l3.902-5.072c0.255-0.327 0.555-0.574 0.899-0.74s0.705-0.249 1.081-0.249c0.376 0 0.735 0.083 1.079 0.249s0.643 0.413 0.898 0.74l3.905 5.072 5.928 1.994c0.544 0.19 0.966 0.511 1.268 0.961s0.453 0.946 0.453 1.486c0 0.245-0.036 0.494-0.109 0.747s-0.188 0.493-0.349 0.722l-3.792 5.43 0.133 5.762c0 0.727-0.252 1.343-0.756 1.846s-1.102 0.756-1.795 0.756c-0.034 0-0.245-0.031-0.633-0.093l-6.233-1.733-6.226 1.731c-0.121 0.041-0.243 0.068-0.366 0.082s-0.236 0.021-0.34 0.021c-0.696 0-1.29-0.255-1.781-0.765s-0.723-1.136-0.695-1.879l0.133-5.763-3.8-5.429c-0.165-0.23-0.283-0.472-0.353-0.727s-0.105-0.504-0.105-0.751c0-0.542 0.15-1.034 0.451-1.475s0.726-0.751 1.278-0.929l5.923-1.994zM10.345 10.192l-6.879 2.309 4.435 6.386-0.175 6.813 7.13-1.976 7.138 2.001-0.175-6.839 4.427-6.319-6.879-2.376-4.503-5.862-4.519 5.862z"></path>
<path d="M187.442 18.47c0 1.159-0.157 2.188-0.467 3.088-0.294 0.882-0.727 1.635-1.297 2.257-0.554 0.623-1.237 1.098-2.050 1.427-0.795 0.311-1.686 0.467-2.672 0.467-0.917 0-1.765-0.156-2.543-0.467-0.778-0.329-1.453-0.804-2.024-1.427-0.57-0.623-1.021-1.375-1.349-2.257-0.312-0.899-0.467-1.929-0.467-3.088 0-1.54 0.259-2.837 0.778-3.892 0.519-1.072 1.263-1.886 2.231-2.439 0.969-0.571 2.12-0.856 3.451-0.856 1.263 0 2.369 0.285 3.321 0.856 0.968 0.553 1.721 1.367 2.257 2.439 0.553 1.055 0.831 2.352 0.831 3.892zM176.934 18.47c0 1.090 0.138 2.041 0.415 2.854 0.294 0.796 0.744 1.41 1.35 1.842 0.605 0.432 1.375 0.649 2.309 0.649 0.935 0 1.704-0.216 2.31-0.649s1.046-1.046 1.323-1.842c0.294-0.813 0.441-1.764 0.441-2.854 0-1.107-0.147-2.050-0.441-2.828-0.295-0.778-0.744-1.375-1.35-1.79-0.589-0.432-1.358-0.649-2.309-0.649-1.419 0-2.448 0.467-3.088 1.401s-0.96 2.223-0.96 3.866z"></path>
<path d="M173.384 13.463h-4.541v11.987h-2.257v-11.987h-4.489v-1.92h11.287v1.92z"></path>
<path d="M150.664 25.45h-2.646l3.969-5.838c-0.536-0.138-1.055-0.355-1.557-0.649-0.502-0.311-0.909-0.735-1.219-1.271-0.311-0.554-0.467-1.237-0.467-2.050 0-1.332 0.45-2.344 1.35-3.036 0.899-0.709 2.093-1.064 3.581-1.064h6.226v13.907h-2.282v-5.526h-3.374l-3.581 5.526zM150.95 15.668c0 0.796 0.294 1.392 0.882 1.79 0.606 0.381 1.445 0.571 2.517 0.571h3.27v-4.592h-3.711c-1.055 0-1.816 0.208-2.283 0.623-0.449 0.415-0.674 0.951-0.674 1.609z"></path>
<path d="M146.561 15.046c0 0.865-0.259 1.539-0.778 2.024s-1.185 0.813-1.998 0.986v0.104c0.864 0.121 1.617 0.432 2.257 0.934 0.64 0.484 0.96 1.245 0.96 2.283 0 0.588-0.113 1.133-0.337 1.635-0.208 0.502-0.536 0.934-0.986 1.297-0.449 0.363-1.030 0.649-1.738 0.856-0.71 0.19-1.566 0.285-2.569 0.285h-5.993v-13.907h5.968c0.985 0 1.867 0.112 2.646 0.337 0.797 0.208 1.418 0.571 1.869 1.090 0.467 0.502 0.701 1.194 0.701 2.076zM144.641 21.376c0-0.796-0.303-1.366-0.909-1.712-0.605-0.346-1.496-0.519-2.672-0.519h-3.399v4.463h3.45c1.142 0 2.016-0.164 2.621-0.493 0.606-0.346 0.909-0.925 0.909-1.738zM144.251 15.331c0-0.657-0.242-1.133-0.726-1.427-0.467-0.311-1.237-0.467-2.31-0.467h-3.554v3.814h3.139c1.125 0 1.981-0.156 2.568-0.467 0.589-0.311 0.882-0.796 0.882-1.453z"></path>
<path d="M129.009 25.709c-1.227 0-2.326-0.251-3.295-0.752-0.951-0.502-1.704-1.28-2.257-2.335-0.536-1.055-0.805-2.404-0.805-4.048 0-1.712 0.286-3.105 0.856-4.177 0.571-1.072 1.341-1.859 2.31-2.361 0.986-0.502 2.102-0.752 3.347-0.752 0.709 0 1.392 0.078 2.049 0.233 0.657 0.138 1.194 0.311 1.609 0.519l-0.701 1.894c-0.415-0.156-0.899-0.303-1.454-0.441-0.553-0.138-1.072-0.208-1.557-0.208-0.934 0-1.704 0.199-2.309 0.597-0.606 0.398-1.056 0.986-1.35 1.764s-0.441 1.747-0.441 2.906c0 1.107 0.147 2.050 0.441 2.828s0.735 1.366 1.323 1.764c0.589 0.398 1.323 0.597 2.206 0.597 0.761 0 1.426-0.078 1.998-0.233 0.587-0.156 1.125-0.346 1.608-0.571v2.024c-0.466 0.242-0.985 0.424-1.557 0.545-0.553 0.138-1.227 0.208-2.024 0.208z"></path>
<path d="M114.669 18.47c0 1.159-0.155 2.188-0.467 3.088-0.294 0.882-0.727 1.635-1.297 2.257-0.554 0.623-1.237 1.098-2.050 1.427-0.796 0.311-1.686 0.467-2.672 0.467-0.917 0-1.764-0.156-2.543-0.467-0.778-0.329-1.453-0.804-2.024-1.427s-1.021-1.375-1.349-2.257c-0.311-0.899-0.467-1.929-0.467-3.088 0-1.54 0.259-2.837 0.778-3.892 0.519-1.072 1.263-1.886 2.231-2.439 0.969-0.571 2.119-0.856 3.451-0.856 1.263 0 2.37 0.285 3.321 0.856 0.969 0.553 1.721 1.367 2.257 2.439 0.554 1.055 0.831 2.352 0.831 3.892zM104.16 18.47c0 1.090 0.138 2.041 0.415 2.854 0.294 0.796 0.744 1.41 1.349 1.842s1.375 0.649 2.309 0.649 1.704-0.216 2.309-0.649c0.606-0.432 1.046-1.046 1.323-1.842 0.294-0.813 0.441-1.764 0.441-2.854 0-1.107-0.147-2.050-0.441-2.828s-0.744-1.375-1.349-1.79c-0.588-0.432-1.358-0.649-2.309-0.649-1.418 0-2.448 0.467-3.088 1.401s-0.96 2.223-0.96 3.866z"></path>
<path d="M88.859 11.543v5.786h7.55v-5.786h2.283v13.907h-2.283v-6.201h-7.55v6.201h-2.283v-13.907h2.283z"></path>
<path d="M81.682 5.783c-0.069 0.865-0.285 1.591-0.649 2.179-0.346 0.588-0.865 1.029-1.557 1.323s-1.591 0.441-2.698 0.441c-1.124 0-2.032-0.147-2.724-0.441-0.675-0.294-1.168-0.726-1.479-1.297-0.311-0.588-0.502-1.323-0.571-2.205h2.128c0.087 0.934 0.329 1.565 0.727 1.894 0.415 0.311 1.072 0.467 1.972 0.467 0.796 0 1.418-0.164 1.868-0.493 0.467-0.346 0.744-0.969 0.83-1.868h2.153zM72.575 20.027c0 0.156-0.009 0.381-0.026 0.675 0 0.277-0.009 0.579-0.026 0.908-0.017 0.311-0.035 0.614-0.052 0.908-0.017 0.277-0.035 0.502-0.052 0.675l7.447-11.65h2.802v13.907h-2.128v-8.199c0-0.277 0-0.64 0-1.090 0.017-0.45 0.035-0.891 0.052-1.323 0.017-0.45 0.035-0.787 0.052-1.012l-7.395 11.624h-2.828v-13.907h2.154v8.484z"></path>
<path d="M61.665 11.309c1.695 0 2.949 0.372 3.762 1.116s1.22 1.929 1.22 3.555v9.47h-1.661l-0.441-1.972h-0.104c-0.398 0.502-0.813 0.925-1.245 1.271-0.415 0.329-0.899 0.571-1.453 0.727-0.536 0.156-1.194 0.233-1.972 0.233-0.83 0-1.583-0.147-2.257-0.441-0.657-0.294-1.176-0.744-1.557-1.349-0.381-0.623-0.571-1.401-0.571-2.335 0-1.384 0.545-2.448 1.635-3.191 1.090-0.761 2.768-1.176 5.034-1.245l2.361-0.078v-0.83c0-1.159-0.251-1.963-0.752-2.413s-1.211-0.675-2.128-0.675c-0.726 0-1.418 0.112-2.076 0.337-0.657 0.208-1.271 0.45-1.842 0.726l-0.7-1.712c0.605-0.329 1.323-0.605 2.154-0.83 0.83-0.242 1.695-0.363 2.595-0.363zM62.34 18.73c-1.73 0.069-2.932 0.346-3.606 0.83-0.657 0.484-0.986 1.168-0.986 2.050 0 0.778 0.234 1.349 0.701 1.712 0.484 0.363 1.098 0.545 1.842 0.545 1.176 0 2.154-0.32 2.932-0.96 0.778-0.657 1.168-1.66 1.168-3.010v-1.245l-2.050 0.078z"></path>
<path d="M45.429 6.665v2.283c2.006 0.035 3.589 0.363 4.748 0.986s1.98 1.453 2.465 2.491c0.484 1.021 0.727 2.162 0.727 3.425 0 0.83-0.13 1.661-0.389 2.491-0.242 0.813-0.666 1.557-1.271 2.231-0.605 0.657-1.418 1.194-2.439 1.609s-2.301 0.64-3.84 0.674v2.854h-2.309v-2.854c-1.574-0.035-2.88-0.259-3.918-0.674-1.021-0.432-1.825-0.986-2.413-1.661-0.588-0.692-1.003-1.444-1.245-2.257s-0.363-1.617-0.363-2.413c0-0.917 0.13-1.782 0.389-2.595 0.277-0.83 0.718-1.557 1.323-2.179 0.623-0.64 1.444-1.15 2.465-1.531s2.275-0.579 3.762-0.597v-2.283h2.309zM43.12 10.92c-1.384 0.035-2.491 0.259-3.321 0.675-0.813 0.415-1.392 0.986-1.738 1.712-0.346 0.709-0.519 1.548-0.519 2.517 0 1.021 0.19 1.911 0.571 2.672 0.398 0.744 1.003 1.323 1.816 1.738 0.83 0.415 1.894 0.649 3.191 0.7v-10.015zM45.429 20.935c1.332-0.052 2.404-0.294 3.217-0.726 0.83-0.432 1.427-1.021 1.79-1.764 0.381-0.761 0.571-1.635 0.571-2.621s-0.173-1.833-0.519-2.543c-0.346-0.726-0.925-1.289-1.738-1.686-0.813-0.415-1.92-0.64-3.321-0.675v10.015z"></path>
</symbol>
<symbol id="icon-Youtube" viewBox="0 0 32 32">
<path d="M28.791 9.604c-0.152-0.563-0.449-1.077-0.861-1.49s-0.925-0.711-1.489-0.864c-2.088-0.573-10.441-0.583-10.441-0.583s-8.352-0.009-10.441 0.539c-0.563 0.16-1.075 0.462-1.487 0.878s-0.711 0.929-0.867 1.493c-0.551 2.088-0.556 6.419-0.556 6.419s-0.005 4.352 0.541 6.419c0.307 1.143 1.207 2.045 2.351 2.353 2.109 0.573 10.44 0.583 10.44 0.583s8.353 0.009 10.441-0.537c0.563-0.153 1.077-0.45 1.49-0.862s0.712-0.925 0.866-1.488c0.552-2.087 0.556-6.416 0.556-6.416s0.027-4.353-0.543-6.441zM13.328 20.007l0.007-8 6.943 4.007-6.949 3.993z"></path>
</symbol>
<symbol id="icon-Facebook" viewBox="0 0 32 32">
<path d="M29.333 16.405c0-7.409-5.969-13.415-13.333-13.415s-13.333 6.006-13.333 13.415c0 6.696 4.876 12.245 11.25 13.252v-9.374h-3.385v-3.878h3.385v-2.955c0-3.362 1.991-5.219 5.036-5.219 1.459 0 2.985 0.262 2.985 0.262v3.301h-1.681c-1.656 0-2.173 1.034-2.173 2.095v2.516h3.698l-0.591 3.878h-3.107v9.374c6.374-1.006 11.25-6.556 11.25-13.252z"></path>
</symbol>
<symbol id="icon-Instagram" viewBox="0 0 32 32">
<path d="M15.998 6.161c3.206 0 3.585 0.014 4.846 0.071 1.172 0.052 1.804 0.248 2.226 0.412 0.558 0.216 0.961 0.478 1.378 0.895 0.422 0.422 0.679 0.82 0.9 1.378 0.164 0.422 0.361 1.059 0.412 2.226 0.056 1.266 0.071 1.645 0.071 4.847s-0.014 3.585-0.071 4.847c-0.052 1.172-0.248 1.804-0.412 2.226-0.216 0.558-0.478 0.961-0.895 1.378-0.422 0.422-0.82 0.679-1.378 0.9-0.422 0.164-1.060 0.361-2.226 0.412-1.266 0.056-1.645 0.071-4.847 0.071s-3.585-0.014-4.847-0.071c-1.172-0.052-1.804-0.248-2.226-0.412-0.558-0.216-0.961-0.478-1.378-0.895-0.422-0.422-0.679-0.82-0.9-1.377-0.164-0.422-0.361-1.060-0.412-2.227-0.056-1.266-0.071-1.645-0.071-4.847s0.014-3.585 0.071-4.847c0.052-1.172 0.248-1.804 0.412-2.226 0.216-0.558 0.478-0.961 0.895-1.378 0.422-0.422 0.82-0.679 1.378-0.9 0.422-0.164 1.059-0.361 2.226-0.412 1.261-0.056 1.642-0.071 4.847-0.071zM15.998 4.001c-3.258 0-3.665 0.014-4.945 0.071-1.275 0.056-2.151 0.262-2.91 0.558-0.792 0.309-1.462 0.717-2.127 1.387-0.67 0.666-1.078 1.336-1.387 2.123-0.295 0.764-0.502 1.636-0.558 2.91-0.056 1.285-0.071 1.692-0.071 4.949s0.014 3.665 0.071 4.945c0.056 1.275 0.262 2.151 0.558 2.91 0.31 0.792 0.717 1.462 1.387 2.127 0.665 0.665 1.336 1.078 2.123 1.383 0.764 0.295 1.636 0.502 2.91 0.558 1.279 0.056 1.687 0.071 4.945 0.071s3.666-0.014 4.945-0.071c1.275-0.056 2.151-0.262 2.91-0.558 0.787-0.304 1.458-0.717 2.123-1.383s1.078-1.336 1.383-2.123c0.295-0.764 0.502-1.636 0.558-2.91 0.056-1.279 0.071-1.687 0.071-4.945s-0.014-3.665-0.071-4.945c-0.056-1.275-0.262-2.151-0.558-2.91-0.295-0.797-0.703-1.467-1.373-2.133-0.665-0.665-1.336-1.078-2.123-1.383-0.764-0.295-1.635-0.502-2.91-0.558-1.284-0.061-1.693-0.074-4.95-0.074z"></path>
<path d="M15.998 9.836c-3.402 0-6.163 2.76-6.163 6.163s2.76 6.163 6.163 6.163c3.403 0 6.163-2.76 6.163-6.163s-2.76-6.163-6.163-6.163zM15.998 19.997c-2.208 0-3.998-1.79-3.998-3.998s1.79-3.998 3.998-3.998c2.208 0 3.998 1.79 3.998 3.998s-1.79 3.998-3.998 3.998z"></path>
<path d="M23.843 9.592c0 0.795-0.644 1.439-1.439 1.439s-1.439-0.644-1.439-1.439 0.644-1.439 1.439-1.439c0.795 0 1.439 0.644 1.439 1.439z"></path>
</symbol>
<symbol id="icon-half-star" viewBox="0 0 32 32">
<path d="M15.92 6.409v15.247l6.447 4.894-2.588-8.141 5.929-3.859h-7.106l-2.682-8.141zM15.932 25.588l-7.961 6.065c-0.32 0.242-0.644 0.348-0.971 0.316s-0.631-0.137-0.912-0.316c-0.281-0.179-0.482-0.423-0.603-0.731s-0.131-0.653-0.029-1.036l3.038-9.893-7.808-5.617c-0.32-0.218-0.527-0.493-0.62-0.825s-0.086-0.646 0.024-0.942c0.109-0.288 0.286-0.548 0.532-0.778s0.571-0.345 0.976-0.345h9.682l3.096-10.316c0.102-0.39 0.303-0.682 0.603-0.878s0.614-0.293 0.942-0.293c0.327 0 0.641 0.098 0.942 0.293s0.505 0.488 0.615 0.878l3.085 10.316h9.693c0.397 0 0.719 0.115 0.965 0.345s0.423 0.49 0.532 0.778c0.109 0.296 0.117 0.61 0.024 0.942s-0.3 0.607-0.62 0.825l-7.808 5.617 3.038 9.881c0.102 0.39 0.092 0.738-0.029 1.041s-0.322 0.546-0.603 0.726c-0.281 0.187-0.584 0.296-0.907 0.327s-0.645-0.078-0.965-0.327l-7.95-6.055z"></path>
</symbol>
<symbol id="icon-full-star" viewBox="0 0 32 32">
<path d="M15.932 25.588l-7.961 6.065c-0.32 0.242-0.644 0.348-0.971 0.316s-0.631-0.137-0.912-0.316c-0.281-0.179-0.482-0.423-0.603-0.731s-0.131-0.653-0.029-1.036l3.038-9.893-7.808-5.617c-0.32-0.218-0.527-0.493-0.62-0.825s-0.086-0.646 0.024-0.942c0.109-0.288 0.286-0.548 0.532-0.778s0.571-0.345 0.976-0.345h9.682l3.096-10.316c0.102-0.39 0.303-0.682 0.603-0.878s0.614-0.293 0.942-0.293c0.327 0 0.641 0.098 0.942 0.293s0.505 0.488 0.615 0.878l3.085 10.316h9.693c0.397 0 0.719 0.115 0.965 0.345s0.423 0.49 0.532 0.778c0.109 0.296 0.117 0.61 0.024 0.942s-0.3 0.607-0.62 0.825l-7.808 5.617 3.038 9.881c0.102 0.39 0.092 0.738-0.029 1.041s-0.322 0.546-0.603 0.726c-0.281 0.187-0.584 0.296-0.907 0.327s-0.645-0.078-0.965-0.327l-7.95-6.055z"></path>
</symbol>
<symbol id="icon-burger" viewBox="0 0 47 32">
<path d="M2.097 30.628c-0.592 0-1.089-0.203-1.492-0.608s-0.604-0.91-0.604-1.514c0-0.595 0.201-1.091 0.604-1.489s0.9-0.596 1.492-0.596h40.85c0.592 0 1.092 0.203 1.5 0.608s0.612 0.905 0.612 1.5c0 0.605-0.204 1.106-0.612 1.503s-0.908 0.597-1.5 0.597h-40.85zM2.097 17.41c-0.592 0-1.089-0.203-1.492-0.608s-0.604-0.905-0.604-1.5c0-0.594 0.201-1.091 0.604-1.489s0.9-0.597 1.492-0.597h40.85c0.592 0 1.092 0.203 1.5 0.608s0.612 0.905 0.612 1.5c0 0.594-0.204 1.091-0.612 1.489s-0.908 0.597-1.5 0.597h-40.85zM2.097 4.207c-0.592 0-1.089-0.202-1.492-0.607s-0.604-0.91-0.604-1.514c0-0.595 0.201-1.091 0.604-1.489s0.9-0.597 1.492-0.597h40.85c0.592 0 1.092 0.202 1.5 0.607s0.612 0.905 0.612 1.5c0 0.605-0.204 1.106-0.612 1.504s-0.908 0.596-1.5 0.596h-40.85z"></path>
</symbol>
<symbol id="icon-close" viewBox="0 0 32 32">
<path stroke-linejoin="miter" stroke-linecap="butt" stroke-miterlimit="4" stroke-width="2.2857" d="M27.828 1.143c0.376 0 0.609 0.111 0.792 0.295s0.294 0.416 0.295 0.79c0 0.375-0.111 0.609-0.295 0.792l-12.009 12.009 12.009 12.007c0.184 0.184 0.295 0.417 0.295 0.792s-0.111 0.609-0.295 0.792-0.417 0.295-0.792 0.295c-0.375 0-0.609-0.111-0.792-0.295l-12.007-12.009-12.009 12.009c-0.184 0.184-0.417 0.295-0.792 0.295s-0.607-0.111-0.79-0.295c-0.184-0.184-0.295-0.417-0.295-0.792s0.111-0.609 0.295-0.792l12.007-12.007-12.007-12.009c-0.184-0.184-0.295-0.417-0.295-0.792s0.111-0.607 0.295-0.79 0.415-0.294 0.79-0.295c0.375 0 0.609 0.111 0.792 0.295l12.009 12.007 12.007-12.007c0.184-0.184 0.417-0.295 0.792-0.295z"></path>
</symbol>
<symbol id="icon-up" viewBox="0 0 55 32">
<path stroke-linejoin="miter" stroke-linecap="butt" stroke-miterlimit="4" stroke-width="4.5714" d="M26.406 2.286c0.429 0 0.777 0.129 1.143 0.496l22.598 22.603c0.375 0.375 0.496 0.713 0.496 1.112s-0.121 0.737-0.496 1.112c-0.357 0.357-0.709 0.496-1.169 0.496s-0.809-0.14-1.165-0.496l-0.005-0.004-21.406-21.281-21.397 21.397c-0.355 0.355-0.658 0.455-1.027 0.442-0.431-0.016-0.803-0.16-1.196-0.554-0.357-0.357-0.496-0.708-0.496-1.17s0.138-0.813 0.496-1.17l22.487-22.487c0.366-0.366 0.71-0.495 1.138-0.496z"></path>
</symbol>
<symbol id="icon-down" viewBox="0 0 55 32">
<path stroke-linejoin="miter" stroke-linecap="butt" stroke-miterlimit="4" stroke-width="4.5714" d="M4.009 2.286c0.461 0 0.813 0.139 1.17 0.496l21.286 21.406 21.406-21.406c0.355-0.355 0.659-0.455 1.027-0.442 0.431 0.016 0.803 0.165 1.196 0.558 0.357 0.357 0.496 0.709 0.496 1.17-0 0.46-0.139 0.809-0.496 1.165l-22.487 22.487c-0.248 0.248-0.443 0.366-0.571 0.42-0.162 0.068-0.345 0.107-0.567 0.107-0.112 0-0.214-0.013-0.308-0.031l-0.263-0.076-0.241-0.138c-0.095-0.066-0.203-0.158-0.326-0.281l-22.603-22.598c-0.338-0.338-0.457-0.656-0.442-1.089 0.017-0.491 0.182-0.874 0.558-1.25 0.356-0.356 0.705-0.495 1.165-0.496z"></path>
</symbol>
<symbol id="icon-right" viewBox="0 0 32 32">
<path d="M26.109 17.325h-24.405c-0.489 0-0.895-0.162-1.218-0.485s-0.485-0.73-0.485-1.219 0.162-0.895 0.485-1.219c0.323-0.323 0.729-0.485 1.218-0.485h24.405l-11.004-11.003c-0.34-0.34-0.512-0.74-0.517-1.202s0.163-0.863 0.504-1.204c0.341-0.343 0.742-0.512 1.204-0.508s0.865 0.176 1.207 0.515l13.9 13.9c0.182 0.184 0.314 0.375 0.397 0.574s0.125 0.41 0.125 0.633-0.042 0.433-0.125 0.631c-0.083 0.198-0.215 0.389-0.397 0.573l-13.912 13.9c-0.352 0.348-0.755 0.521-1.209 0.521s-0.851-0.175-1.191-0.524c-0.34-0.34-0.509-0.738-0.509-1.193s0.17-0.851 0.509-1.191l11.015-11.015z"></path>
</symbol>
<symbol id="icon-left" viewBox="0 0 32 32">
<path d="M5.817 17.331l11.004 11.003c0.34 0.341 0.512 0.741 0.515 1.2s-0.164 0.861-0.503 1.204c-0.34 0.344-0.741 0.514-1.204 0.51s-0.865-0.176-1.207-0.516l-13.9-13.9c-0.182-0.184-0.314-0.375-0.397-0.574s-0.124-0.41-0.124-0.633 0.042-0.434 0.124-0.631c0.083-0.198 0.215-0.389 0.397-0.572l13.912-13.912c0.352-0.34 0.755-0.509 1.208-0.509s0.851 0.17 1.191 0.509c0.34 0.348 0.509 0.75 0.509 1.204s-0.17 0.853-0.509 1.195l-11.015 11.015h24.405c0.488 0 0.896 0.162 1.224 0.485s0.491 0.729 0.491 1.219-0.164 0.895-0.491 1.219c-0.328 0.323-0.736 0.485-1.224 0.485h-24.405z"></path>
</symbol>
<symbol id="icon-star" viewBox="0 0 34 32">
<path d="M9.382 26.314l6.829-4.082 6.829 4.127-1.835-7.731 6.006-5.227-7.919-0.69-3.081-7.296-3.081 7.263-7.919 0.679 6.006 5.216-1.835 7.741zM16.211 25.758l-8.288 4.999c-0.279 0.169-0.57 0.245-0.872 0.227s-0.571-0.112-0.807-0.282c-0.236-0.169-0.411-0.388-0.525-0.657s-0.138-0.572-0.072-0.911l2.188-9.444-7.31-6.377c-0.265-0.228-0.428-0.486-0.486-0.774s-0.051-0.567 0.022-0.84c0.066-0.273 0.219-0.503 0.459-0.69s0.528-0.297 0.867-0.326l9.665-0.844 3.744-8.921c0.133-0.309 0.334-0.539 0.603-0.69s0.539-0.227 0.812-0.227 0.543 0.076 0.812 0.227c0.269 0.151 0.47 0.381 0.603 0.69l3.744 8.921 9.676 0.844c0.332 0.030 0.617 0.138 0.857 0.326s0.392 0.418 0.459 0.69c0.073 0.273 0.081 0.552 0.022 0.84s-0.221 0.545-0.486 0.774l-7.31 6.377 2.188 9.444c0.066 0.339 0.042 0.643-0.072 0.911s-0.289 0.488-0.525 0.657c-0.236 0.169-0.505 0.263-0.807 0.282s-0.593-0.057-0.873-0.227l-8.288-4.999z"></path>
</symbol>
<symbol id="icon-logo" viewBox="0 0 33 32">
<path d="M16.475 23.202c1.299 0 2.455-0.385 3.47-1.156s1.752-1.765 2.212-2.983h-11.362c0.46 1.217 1.197 2.212 2.212 2.983s2.171 1.156 3.47 1.156zM12.417 16.709c0.676 0 1.251-0.237 1.725-0.71s0.71-1.048 0.71-1.725c0-0.67-0.237-1.243-0.71-1.72s-1.048-0.715-1.725-0.715c-0.676 0-1.251 0.238-1.725 0.715s-0.71 1.050-0.71 1.72c0 0.676 0.237 1.251 0.71 1.725s1.048 0.71 1.725 0.71zM20.533 16.709c0.676 0 1.251-0.237 1.725-0.71s0.71-1.048 0.71-1.725c0-0.67-0.237-1.243-0.71-1.72s-1.048-0.715-1.725-0.715c-0.676 0-1.251 0.238-1.725 0.715s-0.71 1.050-0.71 1.72c0 0.676 0.237 1.251 0.71 1.725s1.048 0.71 1.725 0.71zM9.315 7.379l4.751-6.175c0.311-0.398 0.676-0.699 1.095-0.901s0.858-0.304 1.315-0.304c0.457 0 0.895 0.101 1.313 0.304s0.783 0.503 1.093 0.901l4.754 6.175 7.217 2.428c0.662 0.232 1.177 0.622 1.544 1.17s0.551 1.151 0.551 1.809c0 0.299-0.044 0.602-0.132 0.909s-0.229 0.6-0.425 0.879l-4.616 6.61 0.162 7.015c0 0.885-0.307 1.634-0.92 2.248s-1.342 0.92-2.185 0.92c-0.041 0-0.298-0.038-0.771-0.113l-7.588-2.109-7.579 2.107c-0.148 0.050-0.296 0.083-0.445 0.1s-0.287 0.025-0.414 0.025c-0.848 0-1.571-0.311-2.169-0.931s-0.88-1.383-0.846-2.287l0.162-7.016-4.626-6.609c-0.201-0.28-0.344-0.575-0.429-0.885s-0.127-0.614-0.127-0.914c0-0.66 0.183-1.258 0.549-1.796s0.884-0.914 1.556-1.131l7.211-2.428zM10.983 9.764l-8.374 2.811 5.399 7.774-0.213 8.295 8.68-2.406 8.689 2.436-0.213-8.326 5.389-7.693-8.374-2.893-5.482-7.136-5.501 7.136z"></path>
</symbol>
<symbol id="icon-Menu-Button" viewBox="0 0 32 32">
<path d="M4.8 8c0-0.424 0.169-0.831 0.469-1.131s0.707-0.469 1.131-0.469h19.2c0.424 0 0.831 0.169 1.131 0.469s0.469 0.707 0.469 1.131-0.169 0.831-0.469 1.131c-0.3 0.3-0.707 0.469-1.131 0.469h-19.2c-0.424 0-0.831-0.169-1.131-0.469s-0.469-0.707-0.469-1.131z"></path>
<path d="M4.8 16c0-0.424 0.169-0.831 0.469-1.131s0.707-0.469 1.131-0.469h19.2c0.424 0 0.831 0.169 1.131 0.469s0.469 0.707 0.469 1.131-0.169 0.831-0.469 1.131c-0.3 0.3-0.707 0.469-1.131 0.469h-19.2c-0.424 0-0.831-0.169-1.131-0.469s-0.469-0.707-0.469-1.131z"></path>
<path d="M4.8 24c0-0.424 0.169-0.831 0.469-1.131s0.707-0.469 1.131-0.469h19.2c0.424 0 0.831 0.169 1.131 0.469s0.469 0.707 0.469 1.131-0.169 0.831-0.469 1.131c-0.3 0.3-0.707 0.469-1.131 0.469h-19.2c-0.424 0-0.831-0.169-1.131-0.469s-0.469-0.707-0.469-1.131z"></path>
</symbol>
</defs>
</svg>

